# xmcd
#
# Track frame offsets: 
#        150
#        14107
#        23880
#        33866
#        44904
#        56775
#        68594
#        80931
#        91781
#        101858
#        116975
#        127280
#        138635
#        153607
#        170696
#        181658
#        195113
#        205042
#        216583
#        228826
#
# Disc length: 3260 seconds
#
# Revision: 0
# Processed by: cddbd v1.5.2PL0 Copyright (c) Steve Scherf et al.
# Submitted via: ExactAudioCopy v0.99pb3
#
DISCID=2d0cba14
DTITLE=Various Artist - Women of Country
DYEAR=2003
DGENRE=Country
TTITLE0=Lacy J Dalton - Tennessee Waltz
TTITLE1=Barbara Mandrell - Please Release Me
TTITLE2=Kitty Wells - I Can't Stop Loving You
TTITLE3=Dolly Parton - It Wasn't God Who Made Honky Tonk Angels
TTITLE4=Patsy Cline - Walkin' After Midnight
TTITLE5=Donna Fargo - The Happiest Girl in the Whole USA
TTITLE6=Lynn Anderson - Stand By Your Man
TTITLE7=Janie Fricke - Down to my Last Broken Heart
TTITLE8=Barbara Mandrell - Kaw-Liga
TTITLE9=Lynn Anderson - Could I Have This Dance
TTITLE10=Dolly Parton - Release Me
TTITLE11=Patsy Cline - Just Out of Reach
TTITLE12=Jeannie Pruett - Satin Sheets
TTITLE13=Lynn Anderson - Blue Bayou
TTITLE14=Sandy Posey - A Single Girl
TTITLE15=Billie Jo Spears - Fever
TTITLE16=Kitty Wells - Love Makes the World Go 'Round
TTITLE17=Lynn Anderson - Listen to a Country Song
TTITLE18=Dolly Parton - Makin' Believe
TTITLE19=Lynn Anderson - You Needed Me
EXTD=
EXTT0=
EXTT1=
EXTT2=
EXTT3=
EXTT4=
EXTT5=
EXTT6=
EXTT7=
EXTT8=
EXTT9=
EXTT10=
EXTT11=
EXTT12=
EXTT13=
EXTT14=
EXTT15=
EXTT16=
EXTT17=
EXTT18=
EXTT19=
PLAYORDER=
